<svg id="Layer_1" data-name="Layer 1" xmlns="http://www.w3.org/2000/svg" viewBox="0 0 1051.02 904.6"><defs><style>.cls-1{fill:#ebebeb;}</style></defs><path class="cls-1" d="M57.79,35.62c24.64-.6,48.72,3.3,72.47,9.39,6.6,1.7,13,4.15,19.48,6.3,2.1.7,4,1.72,1.95,4.26-7.25,9.14-12.48,19.63-19.34,29.05-2.85,3.9-5.81,5.31-10.59,3.69-20.64-7-42.15-9.74-63.7-11.38-16.92-1.28-33.89.2-50.7,2.87C-5,81.75-17.26,83.91-29.11,88c-6.6,2.26-13.2,4.57-19.62,7.29-3.75,1.59-5.82.37-8-2.55-5-6.67-9.94-13.33-15.27-19.7-2.27-2.71-1.94-4.1.83-5.82,7.12-4.4,14.85-7.57,22.47-10.85A254.66,254.66,0,0,1-1.15,41.45,261.81,261.81,0,0,1,57.79,35.62Z" transform="translate(210.71 -35.56)"/><path class="cls-1" d="M296.77,219.59c-11.15-2.5-22.78-4.56-29.21-17.82-10.88-22.41-27.4-40.76-45.4-57.79-5.27-5-5.26-5.2-.8-10.81,5.79-7.28,11.8-14.3,19.42-19.9,3.39-2.5,5.46-2.11,8.12.47a233.9,233.9,0,0,1,19.88,22.35,256.74,256.74,0,0,1,20.88,29.79c2.47,4.2,4.2,4.31,7.46.34a400.38,400.38,0,0,1,30.56-33.49c3.59-3.47,7.42-6.67,11.05-10.09,1.85-1.75,3.38-1.57,5.18.07,2,1.79,4.24,3.27,5.6,5.62,3.75,6.46,10.76,9.85,14.93,16,2.14,3.16,2.46,4.87-.83,7.73-19.92,17.31-37,37.25-52.41,58.6C306,217.77,303,219.61,296.77,219.59Z" transform="translate(210.71 -35.56)"/><path class="cls-1" d="M309.79,937.55c-1.82.15-3.94-.27-5.4.53-8.42,4.65-15.51.6-22.52-3.25-15-8.25-29.94-16.67-44.84-25.13-4.92-2.79-9.62-6-14.46-8.88-2.83-1.7-2.75-3.05-.14-5.15,3.07-2.5,7-3.15,10.13-5.32,6-4.16,11.44-9,17.43-13.21,2.82-2,4.63-2.18,7.51-.52,13.41,7.7,27,15.13,40.41,22.79,3,1.72,5.45,1.79,8.77.18,17.08-8.27,34.26-16.32,50.4-26.38,4.8-3,9.59-6,14.38-9,1.92-1.21,4-2.16,6-.55,7.75,6.25,15.73,12.24,22,20.15,2.4,3,1.8,5-1,6.91-9.78,6.64-19.41,13.52-29.39,19.85-15.33,9.71-31.19,18.5-48.06,25.35A22,22,0,0,1,309.79,937.55Z" transform="translate(210.71 -35.56)"/><path class="cls-1" d="M792.83,126.84a4.13,4.13,0,0,1-2.06,3.09c-9.63,7.4-19.84,14-30,20.55-2.21,1.43-3.81.38-5.25-1.18-3.17-3.41-6.16-7-9.41-10.31-17.12-17.53-37.29-30.56-59.87-39.8-8.58-3.51-17.26-6.91-26.35-9-3.81-.9-5.62-2.83-4-7.21,3.18-8.38,6-16.91,8.8-25.42,1-3,2.8-3.74,5.74-2.86,21.25,6.35,42,14,61.58,24.48,19,10.22,36.67,22.27,52.23,37.28,2.63,2.53,5,5.38,7.34,8.15A10.85,10.85,0,0,1,792.83,126.84Z" transform="translate(210.71 -35.56)"/><path class="cls-1" d="M556.24,57.61c0,5.16-.08,10.33,0,15.49.08,3.73-1.48,5.29-5.29,5.6-13.73,1.09-27.47,2.23-41.06,4.68A333.69,333.69,0,0,0,449.48,100c-3.23,1.24-5,.62-6.45-2.18Q435.29,83.3,427.5,68.84c-1-1.92-.33-3.12,1.54-3.94,12.51-5.49,25.12-10.67,38.25-14.55a362.83,362.83,0,0,1,58-12.16,173.32,173.32,0,0,1,25.88-1.62c3.57.09,5.18,1.4,5.09,5C556.15,47,556.24,52.28,556.24,57.61Z" transform="translate(210.71 -35.56)"/><path class="cls-1" d="M710.11,566.09c4.91,1.55,9.94,4.55,14.68,7.86,3.11,2.18,6,4.69,9.29,6.68,5.08,3.07,5.35,4.35,1.7,8.9-10.39,13-21.36,25.49-32.69,37.66q-14.26,15.33-29.18,30c-8.18,8-16.83,15.6-25.29,23.35-2.92,2.69-5.19,3.1-8.07-.72-5-6.7-9.08-14.29-16.9-18.68-3.87-2.18-3.38-5.43,0-8.53C639,638.56,653.88,624,668.25,609c12.64-13.22,24.75-26.94,37-40.47C706.44,567.27,707.4,565.91,710.11,566.09Z" transform="translate(210.71 -35.56)"/><path class="cls-1" d="M-210.7,276.24c1.88-11.45,3-23,5.74-34.33a285.41,285.41,0,0,1,15.26-45.29,265.8,265.8,0,0,1,28.06-49.83c2.42-3.39,4.28-3.07,7.18-.51,6.44,5.7,10.68,13.15,16.27,19.52,1.45,1.66.41,3-.53,4.44-11.78,18.72-20,38.93-25.6,60.33-4.73,18.07-7.05,36.43-8,55-.25,4.79-3.68,4.66-6.38,3.56-6.52-2.67-13.63-3-20.14-5.66a39.27,39.27,0,0,0-7.26-1.77C-210.27,280.93-210.8,280.37-210.7,276.24Z" transform="translate(210.71 -35.56)"/><path class="cls-1" d="M-196.45,385.9c8.49,1.79,16.41-1.47,24.56-1.15,4.29.17,6.46.51,7.48,5.4,7,33.59,17,66.27,31.41,97.51,1.53,3.32,2.82,6.75,4.3,10.1,1,2.4.6,4.74-1.75,5.44-7.78,2.33-13.92,7.72-21.23,10.88-3.75,1.62-5.89.57-7.56-2.9a616.77,616.77,0,0,1-33.9-85.73c-3.33-10.82-6-21.77-8.79-32.72C-203.24,387.56-201.41,385.68-196.45,385.9Z" transform="translate(210.71 -35.56)"/><path class="cls-1" d="M7.81,688A3.66,3.66,0,0,1,6.13,691c-8,6.2-16,12.39-25.5,16.42-2.28,1-3.74.41-5.26-1.26-19.95-21.9-39.19-44.41-57-68.08-5.9-7.83-11.38-16-17-24-1.48-2.1-2.68-4.43,1-5.34,8.1-2,14.3-7.69,21.71-11.08,4.32-2,6.4-1.31,8.65,2,8.22,12,17.74,22.89,27,34,8,9.73,16.38,19.25,24.84,28.63,6.92,7.66,14.21,15,21.33,22.43C6.72,685.65,7.71,686.58,7.81,688Z" transform="translate(210.71 -35.56)"/><path class="cls-1" d="M840.25,293.63c0,10.91-.16,18.91.06,26.9.12,4.66-1.51,7.42-6.37,7.62a180.47,180.47,0,0,0-23.75,2.41c-4.12.72-6-1.1-6-5.57a447.61,447.61,0,0,0-6-77c-.08-.49-.07-1-.16-1.49C796,235.2,797,233.13,806.76,227.4c7.71-4.54,15.55-8.9,22.7-14.33,2.58-1.95,4.17-1.36,4.79,2,2.81,15.23,3.48,30.68,5,46C840.51,272.91,840.14,284.72,840.25,293.63Z" transform="translate(210.71 -35.56)"/><path class="cls-1" d="M463.68,836.27a9.89,9.89,0,0,1-2.37-1.25c-6-5.51-11.93-11.12-17.93-16.64-2.94-2.69-.33-4.24,1.29-5.56,6.58-5.37,13.53-10.28,19.95-15.83,16.09-13.93,32.89-27,48.45-41.59,8-7.5,16.48-14.5,24.69-21.79,1.89-1.68,3.36-1.67,5,.32q7.66,9.2,15.52,18.23c1.83,2.09,1.66,3.54-.36,5.44-7.39,7-15.44,13.18-23.2,19.71q-25.39,21.35-50.6,42.92c-5.45,4.63-10.79,9.38-16.19,14.08A7.52,7.52,0,0,1,463.68,836.27Z" transform="translate(210.71 -35.56)"/><path class="cls-1" d="M162.27,817.29c-.55,1.92-2.16,2.88-3.8,3.66a198,198,0,0,0-26.37,15.8c-2.73,1.87-4.95,1.86-7.65-.22C101,818.5,77.07,801,54.86,781.36c-2.48-2.19-2.4-3.34.6-5.06,9.18-5.27,19.2-9.24,26.77-17,1.72-1.77,3.46-1.36,5.28.15,19.52,16.1,39.63,31.43,60.16,46.22,3.91,2.82,8,5.47,11.9,8.24C160.78,814.7,162.11,815.51,162.27,817.29Z" transform="translate(210.71 -35.56)"/><path class="cls-1" d="M807.14,416.76c4.33,0,8.67-.23,13,.07,3.52.24,5.38,1.94,4.26,6a388.06,388.06,0,0,1-32.6,81.86c-3.14,5.85-5.52,12.11-9.48,17.55-2,2.82-3.54,3.16-6.3.71-6.21-5.52-12.62-10.84-19.22-15.89-2.74-2.09-2.95-3.86-1.46-6.7,5.63-10.74,11.87-21.15,17-32.18,7-15.12,13.25-30.51,17.73-46.56,1.07-3.86,2.87-5.23,6.6-5.07,3.49.15,7,0,10.49,0Z" transform="translate(210.71 -35.56)"/></svg>